<?xml version="1.0" standalone="no"?>
<!DOCTYPE svg PUBLIC "-//W3C//DTD SVG 20010904//EN"
 "http://www.w3.org/TR/2001/REC-SVG-20010904/DTD/svg10.dtd">
<svg version="1.0" xmlns="http://www.w3.org/2000/svg"
 width="768.000000pt" height="768.000000pt" viewBox="0 0 768.000000 768.000000"
 preserveAspectRatio="xMidYMid meet">
<metadata>
Created by potrace 1.11, written by Peter Selinger 2001-2013
</metadata>
<g transform="translate(0.000000,768.000000) scale(0.100000,-0.100000)"
fill="#000000" stroke="none">
<path d="M1923 5757 c-524 -524 -953 -956 -953 -958 0 -3 143 -148 317 -323
l317 -317 958 958 958 958 -33 33 c-107 112 -601 602 -606 602 -3 0 -435 -429
-958 -953z"/>
<path d="M4477 6393 l-317 -317 22 -22 c13 -12 33 -32 44 -45 12 -13 55 -56
96 -96 42 -40 73 -75 70 -78 -3 -3 -1 -5 5 -5 6 0 41 -32 79 -71 81 -84 72
-75 167 -166 41 -40 72 -73 69 -73 -4 0 0 -4 8 -10 27 -17 157 -150 152 -155
-3 -3 -1 -5 5 -5 6 0 41 -32 79 -71 38 -39 86 -88 108 -108 76 -71 126 -124
126 -134 0 -6 2 -8 5 -5 3 3 38 -28 78 -69 40 -42 92 -94 116 -117 24 -22 59
-58 79 -78 19 -20 90 -92 159 -160 69 -68 141 -140 160 -160 61 -64 284 -283
289 -283 4 0 398 391 579 575 l60 60 -955 955 c-525 525 -957 955 -960 955 -3
0 -148 -143 -323 -317z"/>
<path d="M2885 4800 c-523 -522 -950 -954 -950 -960 0 -12 1893 -1910 1905
-1910 11 0 1905 1899 1905 1910 0 12 -1893 1910 -1905 1910 -3 0 -433 -427
-955 -950z"/>
<path d="M320 4155 l-314 -315 319 -320 320 -320 318 318 c174 174 316 320
315 324 -4 9 -74 81 -161 166 -41 39 -72 72 -69 72 4 0 0 4 -8 10 -27 17 -157
150 -152 155 3 3 1 5 -5 5 -5 0 -59 50 -118 110 -60 61 -114 110 -120 110 -5
0 -152 -142 -325 -315z"/>
<path d="M6712 4157 l-314 -314 39 -44 c21 -24 68 -71 104 -104 36 -33 72 -70
79 -82 7 -13 15 -22 16 -20 2 2 92 -86 201 -195 l198 -197 319 320 320 319
-314 315 c-173 173 -320 315 -325 315 -6 0 -151 -141 -323 -313z"/>
<path d="M1290 3205 c-173 -174 -317 -318 -319 -321 -7 -7 1902 -1915 1912
-1911 4 1 149 144 322 317 l315 314 -22 22 c-13 12 -33 32 -44 45 -12 13 -55
56 -96 96 -42 40 -73 75 -70 78 3 3 1 5 -5 5 -6 0 -41 32 -79 71 -81 84 -72
75 -167 167 -41 39 -72 72 -69 72 4 0 0 4 -8 10 -27 17 -157 150 -152 155 3 3
1 5 -5 5 -6 0 -41 32 -79 71 -81 84 -72 75 -167 166 -41 40 -72 75 -69 78 3 3
1 5 -5 5 -6 0 -41 32 -79 71 -38 39 -87 88 -108 108 -21 20 -57 56 -80 80 -23
24 -46 49 -52 55 -7 6 -46 43 -87 83 -41 40 -72 75 -69 78 3 3 1 5 -5 5 -6 0
-41 32 -79 71 -81 84 -72 75 -167 166 -41 40 -72 75 -69 78 3 3 1 5 -5 5 -6 0
-26 16 -45 35 l-34 35 -314 -315z"/>
<path d="M5117 2562 l-958 -958 317 -317 c174 -174 320 -317 323 -317 3 0 435
430 960 955 l954 955 -19 21 c-16 18 -609 610 -617 616 -2 1 -434 -429 -960
-955z"/>
</g>
</svg>
