<svg version="1.0" xmlns="http://www.w3.org/2000/svg" width="1024" height="1024" viewBox="0 0 768 768"><path d="M192.3 192.3C139.9 244.7 97 287.9 97 288.1c0 .3 14.3 14.8 31.7 32.3l31.7 31.7 95.8-95.8 95.8-95.8-3.3-3.3C338 146 288.6 97 288.1 97c-.3 0-43.5 42.9-95.8 95.3zM447.7 128.7L416 160.4l2.2 2.2c1.3 1.2 3.3 3.2 4.4 4.5 1.2 1.3 5.5 5.6 9.6 9.6 4.2 4 7.3 7.5 7 7.8-.3.3-.1.5.5.5s4.1 3.2 7.9 7.1c8.1 8.4 7.2 7.5 16.7 16.6 4.1 4 7.2 7.3 6.9 7.3-.4 0 0 .4.8 1 2.7 1.7 15.7 15 15.2 15.5-.3.3-.1.5.5.5s4.1 3.2 7.9 7.1c3.8 3.9 8.6 8.8 10.8 10.8 7.6 7.1 12.6 12.4 12.6 13.4 0 .6.2.8.5.5.3-.3 3.8 2.8 7.8 6.9 4 4.2 9.2 9.4 11.6 11.7 2.4 2.2 5.9 5.8 7.9 7.8 1.9 2 9 9.2 15.9 16 6.9 6.8 14.1 14 16 16 6.1 6.4 28.4 28.3 28.9 28.3.4 0 39.8-39.1 57.9-57.5l6-6-95.5-95.5C523.5 140 480.3 97 480 97c-.3 0-14.8 14.3-32.3 31.7zM288.5 288c-52.3 52.2-95 95.4-95 96 0 1.2 189.3 191 190.5 191 1.1 0 190.5-189.9 190.5-191 0-1.2-189.3-191-190.5-191-.3 0-43.3 42.7-95.5 95zM32 352.5L.6 384l31.9 32 32 32 31.8-31.8c17.4-17.4 31.6-32 31.5-32.4-.4-.9-7.4-8.1-16.1-16.6-4.1-3.9-7.2-7.2-6.9-7.2.4 0 0-.4-.8-1-2.7-1.7-15.7-15-15.2-15.5.3-.3.1-.5-.5-.5-.5 0-5.9-5-11.8-11-6-6.1-11.4-11-12-11-.5 0-15.2 14.2-32.5 31.5zM671.2 352.3l-31.4 31.4 3.9 4.4c2.1 2.4 6.8 7.1 10.4 10.4 3.6 3.3 7.2 7 7.9 8.2.7 1.3 1.5 2.2 1.6 2 .2-.2 9.2 8.6 20.1 19.5l19.8 19.7 31.9-32 32-31.9-31.4-31.5c-17.3-17.3-32-31.5-32.5-31.5-.6 0-15.1 14.1-32.3 31.3zM129 447.5c-17.3 17.4-31.7 31.8-31.9 32.1-.7.7 190.2 191.5 191.2 191.1.4-.1 14.9-14.4 32.2-31.7l31.5-31.4-2.2-2.2c-1.3-1.2-3.3-3.2-4.4-4.5-1.2-1.3-5.5-5.6-9.6-9.6-4.2-4-7.3-7.5-7-7.8.3-.3.1-.5-.5-.5s-4.1-3.2-7.9-7.1c-8.1-8.4-7.2-7.5-16.7-16.7-4.1-3.9-7.2-7.2-6.9-7.2.4 0 0-.4-.8-1-2.7-1.7-15.7-15-15.2-15.5.3-.3.1-.5-.5-.5s-4.1-3.2-7.9-7.1c-8.1-8.4-7.2-7.5-16.7-16.6-4.1-4-7.2-7.5-6.9-7.8.3-.3.1-.5-.5-.5s-4.1-3.2-7.9-7.1c-3.8-3.9-8.7-8.8-10.8-10.8-2.1-2-5.7-5.6-8-8-2.3-2.4-4.6-4.9-5.2-5.5-.7-.6-4.6-4.3-8.7-8.3-4.1-4-7.2-7.5-6.9-7.8.3-.3.1-.5-.5-.5s-4.1-3.2-7.9-7.1c-8.1-8.4-7.2-7.5-16.7-16.6-4.1-4-7.2-7.5-6.9-7.8.3-.3.1-.5-.5-.5s-2.6-1.6-4.5-3.5l-3.4-3.5-31.4 31.5zM511.7 511.8l-95.8 95.8 31.7 31.7c17.4 17.4 32 31.7 32.3 31.7.3 0 43.5-43 96-95.5l95.4-95.5-1.9-2.1c-1.6-1.8-60.9-61-61.7-61.6-.2-.1-43.4 42.9-96 95.5z"/></svg>